<svg width="49" height="85" viewBox="0 0 49 85" fill="none" xmlns="http://www.w3.org/2000/svg">
<g clip-path="url(#clip0_412_16)">
<path d="M11.3551 40.3308C10.7897 40.3308 10.2714 40.1894 9.80025 39.9067C9.32909 39.624 8.95217 39.2471 8.66948 38.776C8.40249 38.3048 8.269 37.7865 8.269 37.2212C8.269 36.6558 8.40249 36.1375 8.66948 35.6663C8.95217 35.1952 9.32909 34.8261 9.80025 34.5591C10.2714 34.2764 10.7897 34.1351 11.3551 34.1351C11.9362 34.1351 12.4544 34.2764 12.9099 34.5591C13.381 34.8261 13.7579 35.1952 14.0406 35.6663C14.3233 36.1375 14.4647 36.6558 14.4647 37.2212C14.4647 37.7865 14.3233 38.3048 14.0406 38.776C13.7579 39.2471 13.381 39.624 12.9099 39.9067C12.4544 40.1894 11.9362 40.3308 11.3551 40.3308ZM9.28198 29.0231V19.1524C9.59605 19.2153 9.92585 19.2702 10.2714 19.3173C10.6169 19.3487 10.9939 19.3644 11.4022 19.3644C13.0826 19.3644 14.5589 19.066 15.831 18.4692C17.1189 17.8567 18.1239 16.9773 18.8464 15.8308C19.5689 14.6686 19.9301 13.2708 19.9301 11.6375C19.9301 10.067 19.5924 8.7242 18.9171 7.60914C18.2575 6.47837 17.3309 5.61458 16.1373 5.01779C14.9436 4.42099 13.5459 4.1226 11.944 4.1226C9.61961 4.1226 7.73502 4.78221 6.29015 6.10144C4.84528 7.40497 4.05217 9.20321 3.91082 11.4962L0.0238037 10.813C0.212265 8.50433 0.856175 6.54904 1.95553 4.94712C3.0706 3.32949 4.49192 2.10449 6.21948 1.27212C7.96275 0.424038 9.87092 0 11.944 0C14.3469 0 16.4749 0.526122 18.3281 1.57837C20.1814 2.61491 21.634 4.01266 22.6863 5.77164C23.7386 7.5306 24.2647 9.49375 24.2647 11.6611C24.2647 13.687 23.8013 15.5481 22.8748 17.2442C21.9638 18.9246 20.6996 20.2989 19.082 21.3668C17.4643 22.4191 15.6033 23.0316 13.4988 23.2043V29.0231H9.28198Z" fill="#E5ECF1" fill-opacity="0.35"/>
</g>
<g clip-path="url(#clip1_412_16)">
<path d="M35.8551 44.477C35.2897 44.477 34.7714 44.6183 34.3002 44.901C33.8291 45.1837 33.4522 45.5606 33.1695 46.0318C32.9025 46.5029 32.769 47.0212 32.769 47.5866C32.769 48.152 32.9025 48.6702 33.1695 49.1414C33.4522 49.6125 33.8291 49.9816 34.3002 50.2486C34.7714 50.5313 35.2897 50.6726 35.8551 50.6726C36.4362 50.6726 36.9544 50.5313 37.4099 50.2486C37.881 49.9816 38.2579 49.6125 38.5406 49.1414C38.8233 48.6702 38.9647 48.152 38.9647 47.5866C38.9647 47.0212 38.8233 46.5029 38.5406 46.0318C38.2579 45.5606 37.881 45.1837 37.4099 44.901C36.9544 44.6183 36.4362 44.477 35.8551 44.477ZM33.782 55.7847V65.6553C34.096 65.5925 34.4259 65.5375 34.7714 65.4904C35.1169 65.4591 35.4939 65.4433 35.9022 65.4433C37.5826 65.4433 39.0589 65.7417 40.331 66.3385C41.6189 66.951 42.6239 67.8305 43.3464 68.977C44.0689 70.1391 44.4301 71.5369 44.4301 73.1702C44.4301 74.7408 44.0924 76.0835 43.4171 77.1986C42.7575 78.3294 41.8309 79.1932 40.6373 79.7899C39.4436 80.3868 38.0459 80.6851 36.444 80.6851C34.1196 80.6851 32.235 80.0255 30.7902 78.7063C29.3453 77.4028 28.5522 75.6045 28.4108 73.3116L24.5238 73.9948C24.7123 76.3034 25.3562 78.2587 26.4555 79.8606C27.5706 81.4783 28.9919 82.7033 30.7195 83.5356C32.4627 84.3837 34.3709 84.8077 36.444 84.8077C38.8469 84.8077 40.9749 84.2816 42.8281 83.2294C44.6814 82.1928 46.134 80.7951 47.1863 79.0361C48.2386 77.2771 48.7647 75.314 48.7647 73.1467C48.7647 71.1207 48.3013 69.2597 47.3748 67.5635C46.4638 65.8831 45.1996 64.5088 43.582 63.4409C41.9643 62.3886 40.1033 61.7761 37.9988 61.6034V55.7847H33.782Z" fill="#E5ECF1" fill-opacity="0.35"/>
</g>
<g clip-path="url(#clip2_412_16)">
<path d="M37.6449 0.188396C38.2103 0.188396 38.7286 0.329743 39.1998 0.612435C39.6709 0.895127 40.0478 1.27205 40.3305 1.7432C40.5975 2.21436 40.731 2.73263 40.731 3.29801C40.731 3.8634 40.5975 4.38167 40.3305 4.85282C40.0478 5.32397 39.6709 5.69307 39.1998 5.96003C38.7286 6.24272 38.2103 6.38407 37.6449 6.38407C37.0638 6.38407 36.5456 6.24272 36.0901 5.96003C35.619 5.69307 35.2421 5.32397 34.9594 4.85282C34.6767 4.38167 34.5353 3.8634 34.5353 3.29801C34.5353 2.73263 34.6767 2.21436 34.9594 1.7432C35.2421 1.27205 35.619 0.895127 36.0901 0.612435C36.5456 0.329743 37.0638 0.188396 37.6449 0.188396ZM39.718 11.4961V21.3668C39.404 21.3039 39.0741 21.249 38.7286 21.2019C38.3831 21.1705 38.0061 21.1547 37.5978 21.1547C35.9174 21.1547 34.4411 21.4532 33.169 22.0499C31.8811 22.6624 30.8761 23.5419 30.1536 24.6884C29.4311 25.8505 29.0699 27.2484 29.0699 28.8817C29.0699 30.4522 29.4076 31.795 30.0829 32.91C30.7425 34.0408 31.6691 34.9046 32.8627 35.5014C34.0564 36.0982 35.4541 36.3966 37.056 36.3966C39.3804 36.3966 41.265 35.737 42.7098 34.4177C44.1547 33.1142 44.9478 31.316 45.0892 29.023L48.9762 29.7062C48.7877 32.0148 48.1438 33.9701 47.0445 35.572C45.9294 37.1897 44.5081 38.4147 42.7805 39.247C41.0373 40.0951 39.1291 40.5192 37.056 40.5192C34.6531 40.5192 32.5251 39.993 30.6719 38.9408C28.8186 37.9043 27.366 36.5065 26.3137 34.7475C25.2614 32.9886 24.7353 31.0254 24.7353 28.8581C24.7353 26.8321 25.1987 24.9711 26.1252 23.2749C27.0362 21.5945 28.3004 20.2203 29.918 19.1523C31.5357 18.1001 33.3967 17.4876 35.5012 17.3148V11.4961H39.718Z" fill="#E5ECF1" fill-opacity="0.35"/>
</g>
<g clip-path="url(#clip3_412_16)">
<path d="M13.1449 84.6192C13.7103 84.6192 14.2285 84.4779 14.6997 84.1952C15.1708 83.9125 15.5478 83.5356 15.8305 83.0644C16.0974 82.5933 16.2309 82.075 16.2309 81.5096C16.2309 80.9442 16.0974 80.426 15.8305 79.9548C15.5478 79.4836 15.1708 79.1145 14.6997 78.8476C14.2285 78.5649 13.7103 78.4235 13.1449 78.4235C12.5638 78.4235 12.0455 78.5649 11.5901 78.8476C11.1189 79.1145 10.742 79.4836 10.4593 79.9548C10.1766 80.426 10.0353 80.9442 10.0353 81.5096C10.0353 82.075 10.1766 82.5933 10.4593 83.0644C10.742 83.5356 11.1189 83.9125 11.5901 84.1952C12.0455 84.4779 12.5638 84.6192 13.1449 84.6192ZM15.218 73.3115V63.4409C14.9039 63.5037 14.5741 63.5586 14.2285 63.6058C13.883 63.6371 13.5061 63.6529 13.0978 63.6529C11.4174 63.6529 9.94104 63.3544 8.66892 62.7577C7.38107 62.1452 6.37601 61.2657 5.65354 60.1192C4.93107 58.9571 4.56988 57.5593 4.56988 55.926C4.56988 54.3554 4.90751 53.0126 5.58286 51.8976C6.24248 50.7668 7.16905 49.903 8.36267 49.3062C9.55629 48.7094 10.954 48.4111 12.5559 48.4111C14.8803 48.4111 16.7649 49.0707 18.2098 50.3899C19.6547 51.6934 20.4478 53.4917 20.5891 55.7846L24.4761 55.1014C24.2877 52.7928 23.6438 50.8375 22.5444 49.2356C21.4293 47.6179 20.008 46.3929 18.2805 45.5606C16.5372 44.7125 14.629 44.2885 12.5559 44.2885C10.1531 44.2885 8.02504 44.8146 6.17181 45.8668C4.31857 46.9034 2.86591 48.3011 1.81363 50.0601C0.761359 51.8191 0.235269 53.7822 0.235269 55.9495C0.235269 57.9755 0.698602 59.8365 1.62517 61.5327C2.5361 63.2131 3.8003 64.5874 5.41796 65.6553C7.03562 66.7076 8.89668 67.3201 11.0011 67.4928V73.3115H15.218Z" fill="#E5ECF1" fill-opacity="0.35"/>
</g>
<defs>
<clipPath id="clip0_412_16">
<rect width="24.5" height="40.5192" fill="white"/>
</clipPath>
<clipPath id="clip1_412_16">
<rect width="24.5" height="40.5192" fill="white" transform="matrix(1 0 0 -1 24.5 84.8077)"/>
</clipPath>
<clipPath id="clip2_412_16">
<rect width="24.5" height="40.5192" fill="white" transform="matrix(-1 0 0 -1 49 40.5192)"/>
</clipPath>
<clipPath id="clip3_412_16">
<rect width="24.5" height="40.5192" fill="white" transform="matrix(-1 0 0 1 24.5 44.2885)"/>
</clipPath>
</defs>
</svg>
