<svg width="285" height="56" viewBox="0 0 285 56" fill="none" xmlns="http://www.w3.org/2000/svg">
<path d="M42.76 35.64C40.6133 35.64 38.6867 35.1667 36.98 34.22C35.2733 33.2733 33.9267 31.9867 32.94 30.36C31.9533 28.72 31.46 26.8733 31.46 24.82C31.46 23.3 31.74 21.88 32.3 20.56C32.86 19.24 33.64 18.08 34.64 17.08C35.64 16.0667 36.8 15.28 38.12 14.72C39.44 14.16 40.8533 13.88 42.36 13.88C44.4933 13.88 46.36 14.32 47.96 15.2C49.5733 16.08 50.8267 17.3067 51.72 18.88C52.6267 20.4533 53.08 22.28 53.08 24.36C53.08 24.5333 53.0733 24.6733 53.06 24.78C53.0467 24.8867 53.02 25.0267 52.98 25.2H35.38C35.38 26.6267 35.7 27.8867 36.34 28.98C36.9933 30.0733 37.8867 30.9333 39.02 31.56C40.1667 32.1733 41.48 32.48 42.96 32.48C44.36 32.48 45.6133 32.1933 46.72 31.62C47.8267 31.0467 48.7867 30.1933 49.6 29.06L52.44 30.54C51.4667 32.1533 50.1267 33.4067 48.42 34.3C46.7267 35.1933 44.84 35.64 42.76 35.64ZM35.58 22.34H49.18C48.9933 21.2867 48.58 20.3667 47.94 19.58C47.3133 18.78 46.52 18.16 45.56 17.72C44.6133 17.2667 43.5667 17.04 42.42 17.04C41.22 17.04 40.1333 17.26 39.16 17.7C38.2 18.1267 37.4067 18.74 36.78 19.54C36.1667 20.3267 35.7667 21.26 35.58 22.34ZM59.4672 35V14.52H63.3472V17.52C64.0272 16.3333 64.8939 15.4333 65.9472 14.82C67.0005 14.1933 68.1939 13.88 69.5272 13.88C70.1672 13.88 70.8139 13.96 71.4672 14.12C72.1339 14.2667 72.7072 14.4667 73.1872 14.72L71.5872 18C71.1739 17.7733 70.6939 17.5933 70.1472 17.46C69.6005 17.3267 69.0872 17.26 68.6072 17.26C67.7139 17.26 66.8605 17.4933 66.0472 17.96C65.2472 18.4133 64.5939 19.0067 64.0872 19.74C63.5939 20.4733 63.3472 21.26 63.3472 22.1V35H59.4672ZM86.9503 46C84.3103 46 82.0836 45.4933 80.2703 44.48C78.457 43.4667 77.117 41.9867 76.2503 40.04L79.4703 38.52C80.0836 39.7867 81.0636 40.7933 82.4103 41.54C83.757 42.3 85.2703 42.68 86.9503 42.68C88.3903 42.68 89.6703 42.3933 90.7903 41.82C91.9236 41.2467 92.8103 40.4267 93.4503 39.36C94.1036 38.2933 94.4303 37.02 94.4303 35.54V31.16C93.5636 32.56 92.4236 33.66 91.0103 34.46C89.597 35.2467 88.037 35.64 86.3303 35.64C84.437 35.64 82.7236 35.1733 81.1903 34.24C79.657 33.3067 78.437 32.02 77.5303 30.38C76.6236 28.74 76.1703 26.8667 76.1703 24.76C76.1703 22.6667 76.617 20.8067 77.5103 19.18C78.4036 17.54 79.617 16.2467 81.1503 15.3C82.697 14.3533 84.4503 13.88 86.4103 13.88C88.117 13.88 89.677 14.2667 91.0903 15.04C92.5036 15.8133 93.617 16.8867 94.4303 18.26V14.52H98.3103V35.56C98.3103 37.7467 97.8636 39.62 96.9703 41.18C96.0903 42.74 94.8036 43.9333 93.1103 44.76C91.417 45.5867 89.3636 46 86.9503 46ZM87.3703 32.3C88.7703 32.3 90.0103 31.98 91.0903 31.34C92.1836 30.6867 93.037 29.7933 93.6503 28.66C94.2636 27.5267 94.5703 26.2333 94.5703 24.78C94.5703 23.3133 94.257 22.0133 93.6303 20.88C93.017 19.7333 92.1703 18.84 91.0903 18.2C90.0103 17.5467 88.777 17.22 87.3903 17.22C86.0036 17.22 84.7703 17.5467 83.6903 18.2C82.6103 18.84 81.757 19.7333 81.1303 20.88C80.517 22.0133 80.2103 23.3133 80.2103 24.78C80.2103 26.2333 80.517 27.5267 81.1303 28.66C81.7436 29.7933 82.5903 30.6867 83.6703 31.34C84.7503 31.98 85.9836 32.3 87.3703 32.3ZM115.298 35.64C112.005 35.64 109.645 34.9333 108.218 33.52C106.792 32.0933 106.078 29.7267 106.078 26.42V14.52H109.958V25.62C109.958 28.0733 110.365 29.82 111.178 30.86C111.992 31.9 113.365 32.42 115.298 32.42C117.245 32.42 118.625 31.9 119.438 30.86C120.252 29.82 120.658 28.0733 120.658 25.62V14.52H124.538V26.42C124.538 29.7267 123.825 32.0933 122.398 33.52C120.972 34.9333 118.605 35.64 115.298 35.64ZM132.319 35V14.52H136.199V17.16C136.825 16.2267 137.725 15.4467 138.899 14.82C140.072 14.1933 141.465 13.88 143.079 13.88C144.665 13.88 146.039 14.2133 147.199 14.88C148.359 15.5333 149.252 16.48 149.879 17.72C150.519 18.96 150.839 20.44 150.839 22.16V35H146.959V22.94C146.959 21.02 146.499 19.5467 145.579 18.52C144.659 17.4933 143.365 16.98 141.699 16.98C140.552 16.98 139.565 17.2133 138.739 17.68C137.925 18.1333 137.299 18.7467 136.859 19.52C136.419 20.28 136.199 21.1133 136.199 22.02V35H132.319ZM164.093 35.64C162.413 35.64 161.106 35.0867 160.173 33.98C159.239 32.86 158.773 31.2933 158.773 29.28V17.46H156.493V14.52H158.773V6.86H162.653V14.52H167.573V17.46H162.653V29.04C162.653 30.0533 162.853 30.8333 163.253 31.38C163.653 31.9267 164.226 32.2 164.973 32.2C165.719 32.2 166.386 31.98 166.973 31.54L167.953 34.64C167.433 34.9467 166.826 35.1867 166.133 35.36C165.453 35.5467 164.773 35.64 164.093 35.64ZM183.658 35.64C181.512 35.64 179.585 35.1667 177.878 34.22C176.172 33.2733 174.825 31.9867 173.838 30.36C172.852 28.72 172.358 26.8733 172.358 24.82C172.358 23.3 172.638 21.88 173.198 20.56C173.758 19.24 174.538 18.08 175.538 17.08C176.538 16.0667 177.698 15.28 179.018 14.72C180.338 14.16 181.752 13.88 183.258 13.88C185.392 13.88 187.258 14.32 188.858 15.2C190.472 16.08 191.725 17.3067 192.618 18.88C193.525 20.4533 193.978 22.28 193.978 24.36C193.978 24.5333 193.972 24.6733 193.958 24.78C193.945 24.8867 193.918 25.0267 193.878 25.2H176.278C176.278 26.6267 176.598 27.8867 177.238 28.98C177.892 30.0733 178.785 30.9333 179.918 31.56C181.065 32.1733 182.378 32.48 183.858 32.48C185.258 32.48 186.512 32.1933 187.618 31.62C188.725 31.0467 189.685 30.1933 190.498 29.06L193.338 30.54C192.365 32.1533 191.025 33.4067 189.318 34.3C187.625 35.1933 185.738 35.64 183.658 35.64ZM176.478 22.34H190.078C189.892 21.2867 189.478 20.3667 188.838 19.58C188.212 18.78 187.418 18.16 186.458 17.72C185.512 17.2667 184.465 17.04 183.318 17.04C182.118 17.04 181.032 17.26 180.058 17.7C179.098 18.1267 178.305 18.74 177.678 19.54C177.065 20.3267 176.665 21.26 176.478 22.34ZM200.444 25.08V21.74H213.324V25.08H200.444ZM221.538 35V14.52H225.418V17.16C226.284 16.0667 227.264 15.2467 228.358 14.7C229.451 14.1533 230.664 13.88 231.998 13.88C233.651 13.88 235.104 14.26 236.358 15.02C237.611 15.7667 238.484 16.7867 238.978 18.08C239.831 16.7733 240.858 15.7467 242.058 15C243.258 14.2533 244.664 13.88 246.278 13.88C247.744 13.88 249.044 14.18 250.178 14.78C251.311 15.38 252.204 16.2467 252.858 17.38C253.511 18.5133 253.838 19.8867 253.838 21.5V35H249.958V22.58C249.958 20.8733 249.511 19.52 248.618 18.52C247.724 17.52 246.538 17.02 245.058 17.02C244.031 17.02 243.104 17.2467 242.278 17.7C241.464 18.14 240.818 18.72 240.338 19.44C239.871 20.1467 239.638 20.8933 239.638 21.68V35H235.758V22.32C235.758 20.7067 235.318 19.42 234.438 18.46C233.558 17.5 232.384 17.02 230.918 17.02C229.891 17.02 228.958 17.24 228.118 17.68C227.291 18.1067 226.631 18.6667 226.138 19.36C225.658 20.0533 225.418 20.78 225.418 21.54V35H221.538ZM271.354 35.64C269.207 35.64 267.28 35.1667 265.574 34.22C263.867 33.2733 262.52 31.9867 261.534 30.36C260.547 28.72 260.054 26.8733 260.054 24.82C260.054 23.3 260.334 21.88 260.894 20.56C261.454 19.24 262.234 18.08 263.234 17.08C264.234 16.0667 265.394 15.28 266.714 14.72C268.034 14.16 269.447 13.88 270.954 13.88C273.087 13.88 274.954 14.32 276.554 15.2C278.167 16.08 279.42 17.3067 280.314 18.88C281.22 20.4533 281.674 22.28 281.674 24.36C281.674 24.5333 281.667 24.6733 281.654 24.78C281.64 24.8867 281.614 25.0267 281.574 25.2H263.974C263.974 26.6267 264.294 27.8867 264.934 28.98C265.587 30.0733 266.48 30.9333 267.614 31.56C268.76 32.1733 270.074 32.48 271.554 32.48C272.954 32.48 274.207 32.1933 275.314 31.62C276.42 31.0467 277.38 30.1933 278.194 29.06L281.034 30.54C280.06 32.1533 278.72 33.4067 277.014 34.3C275.32 35.1933 273.434 35.64 271.354 35.64ZM264.174 22.34H277.774C277.587 21.2867 277.174 20.3667 276.534 19.58C275.907 18.78 275.114 18.16 274.154 17.72C273.207 17.2667 272.16 17.04 271.014 17.04C269.814 17.04 268.727 17.26 267.754 17.7C266.794 18.1267 266 18.74 265.374 19.54C264.76 20.3267 264.36 21.26 264.174 22.34Z" fill="#FFD369"/>
<path d="M15.05 43.8C14.45 43.8 13.9 43.65 13.4 43.35C12.9 43.05 12.5 42.65 12.2 42.15C11.9167 41.65 11.775 41.1 11.775 40.5C11.775 39.9 11.9167 39.35 12.2 38.85C12.5 38.35 12.9 37.9583 13.4 37.675C13.9 37.375 14.45 37.225 15.05 37.225C15.6667 37.225 16.2167 37.375 16.7 37.675C17.2 37.9583 17.6 38.35 17.9 38.85C18.2 39.35 18.35 39.9 18.35 40.5C18.35 41.1 18.2 41.65 17.9 42.15C17.6 42.65 17.2 43.05 16.7 43.35C16.2167 43.65 15.6667 43.8 15.05 43.8ZM12.85 31.8V21.325C13.1833 21.3917 13.5333 21.45 13.9 21.5C14.2667 21.5333 14.6667 21.55 15.1 21.55C16.8833 21.55 18.45 21.2333 19.8 20.6C21.1667 19.95 22.2333 19.0167 23 17.8C23.7667 16.5667 24.15 15.0833 24.15 13.35C24.15 11.6833 23.7917 10.2583 23.075 9.075C22.375 7.875 21.3917 6.95833 20.125 6.325C18.8583 5.69166 17.375 5.375 15.675 5.375C13.2083 5.375 11.2083 6.075 9.675 7.475C8.14167 8.85833 7.3 10.7667 7.15 13.2L3.025 12.475C3.225 10.025 3.90833 7.95 5.075 6.25C6.25833 4.53333 7.76667 3.23333 9.6 2.35C11.45 1.45 13.475 0.999998 15.675 0.999998C18.225 0.999998 20.4833 1.55833 22.45 2.675C24.4167 3.775 25.9583 5.25833 27.075 7.125C28.1917 8.99166 28.75 11.075 28.75 13.375C28.75 15.525 28.2583 17.5 27.275 19.3C26.3083 21.0833 24.9667 22.5417 23.25 23.675C21.5333 24.7917 19.5583 25.4417 17.325 25.625V31.8H12.85Z" fill="#FFD369"/>
</svg>
